<?xml version="1.0" encoding="UTF-8"?>
<svg xmlns="http://www.w3.org/2000/svg" width="3811" height="1772" viewBox="0 0 3811 1772" >
<title>THY-SHIRT-FIRST-001 mockup 3XL</title>
<metadata>THY-SHIRT-FIRST-001 · THY-WORK-QUESTIONMARK-SHIRT-594 · generated 2026-09-24 by Claude Code (THYLORA session) from constructed vector geometry only · single ink #ECE4D2 · approval_state AWAITING_CHAIRMAN_APPROVAL · order_placed false</metadata>
<rect width="3811" height="1772" fill="#E8E4DC"/>
<text x="60" y="80" font-family="'DejaVu Sans Mono','Liberation Mono',monospace" font-size="34" fill="#1d1b19">THY-SHIRT-FIRST-001 · MOCKUP 3XL · FRONT + BACK · FLAT · 1 in = 36 px</text>
<text x="60" y="126" font-family="'DejaVu Sans Mono','Liberation Mono',monospace" font-size="24" fill="#1d1b19">Bella+Canvas 3001 spec sheet: 3XL chest (flat width) 28 in, body length from HPS 33 in · print at Printful max front area 12x16 in (area UNVERIFIED) · silhouette other than chest/length approximate</text>
<text x="60" y="160" font-family="'DejaVu Sans Mono','Liberation Mono',monospace" font-size="24" fill="#B3261E">AWAITING_CHAIRMAN_APPROVAL · order_placed=false · red dashed = non-printing guides (print area, THYLORA slot BLOCKED)</text>
<g transform="translate(1002.8 230)">
<path d="M-140.4 0 L-536.4 61.2 L-802.8 259.2 L-712.8 403.2 L-504 367.2 L-504 1188 Q0 1200.6 504 1188 L504 367.2 L712.8 403.2 L802.8 259.2 L536.4 61.2 L140.4 0 Q0 230.4 -140.4 0 Z" fill="#151515" stroke="#000" stroke-width="3"/>
<path d="M-140.4 0 Q0 230.4 140.4 0 M-151.2 19.8 Q0 270 151.2 19.8" fill="none" stroke="#2b2b2b" stroke-width="5"/>
<svg x="-216" y="126" width="432" height="576" viewBox="0 0 3600 4800" overflow="visible"><defs><mask id="m3XLf-joints" maskUnits="userSpaceOnUse" x="0" y="0" width="3600" height="4800">
  <rect width="3600" height="4800" fill="#fff"/>
  <path d="M1034.5 1476.7L566.8 1493.1M1046.8 1310.4L586.7 1225.1M1094.9 1150.7L664.1 967.8M1176.4 1005.2L795.4 733.4M1287.4 880.8L974.3 533M1422.8 783.3L1192.3 376M1576 717.5L1439.2 269.9M1739.9 686.4L1703.2 219.8M1906.6 691.5L1971.7 228M2068.3 732.5L2232.2 294.1M2217.2 807.6L2472.1 415.1M2346.3 913.1L2680.2 585.1M2449.6 1044.1L2846.5 796.1M2522.1 1194.3L2963.2 1038.1M2560.3 1356.6L3024.8 1299.6M2562.5 1523.4L3028.3 1568.3M2528.5 1686.7L2973.6 1831.3M2613.9 2341.2L2334.9 1965.4M2314.9 2525.7L2085.8 2117.6M2095.9 2663.6L1798.8 2302M2036.1 2734.2L1588 2599.3M1566 2880L2034 2880M1566 3010L2034 3010M1730 2750L1730 2880M1890 2880L1890 3010M1730 3010L1730 3140" stroke="#000" stroke-width="18" stroke-linecap="butt"/>
</mask></defs>
<g id="LAYER-CONSTRUCTION"><path d="M1142.5 2588.8A1315 1315 0 1 1 2457.5 2588.8" fill="none" stroke="#ECE4D2" stroke-width="9" stroke-linecap="round" stroke-dasharray="44 30"/><circle cx="1800" cy="1450" r="28" fill="none" stroke="#ECE4D2" stroke-width="9"/><path d="M1690 1450H1910M1800 1340V1560" fill="none" stroke="#ECE4D2" stroke-width="9" stroke-linecap="round" /><path d="M1800 1450L2616.3 543.4" fill="none" stroke="#ECE4D2" stroke-width="8" stroke-linecap="round" stroke-dasharray="16 14"/><text x="1950" y="1390" font-family="'DejaVu Sans Mono','Liberation Mono',monospace" font-size="46" letter-spacing="4" fill="#ECE4D2" transform="rotate(-48 1950 1390)">R = 4.07 IN</text><text x="1800" y="1650" text-anchor="middle" font-family="'DejaVu Sans Mono','Liberation Mono',monospace" font-size="46" letter-spacing="6" fill="#ECE4D2">SET OUT FROM THE VAULT</text><text x="1800" y="1712" text-anchor="middle" font-family="'DejaVu Sans Mono','Liberation Mono',monospace" font-size="38" letter-spacing="6" fill="#ECE4D2">EA-RK-STRUCT-VAULT · CASTLE MASONS' LODGE</text><path d="M1800 120V1310" fill="none" stroke="#ECE4D2" stroke-width="8" stroke-linecap="round" stroke-dasharray="60 20 10 20"/><path d="M1800 1750V2710" fill="none" stroke="#ECE4D2" stroke-width="8" stroke-linecap="round" stroke-dasharray="60 20 10 20"/><path d="M1800 3180V3340" fill="none" stroke="#ECE4D2" stroke-width="8" stroke-linecap="round" stroke-dasharray="60 20 10 20"/><path d="M584.1 1778.8H1084.1" fill="none" stroke="#ECE4D2" stroke-width="9" stroke-linecap="round" /><text x="834.1" y="1858.8" text-anchor="middle" font-family="'DejaVu Sans Mono','Liberation Mono',monospace" font-size="40" letter-spacing="5" fill="#ECE4D2">SPRINGER · Q.001</text><path d="M250 300V4500" fill="none" stroke="#ECE4D2" stroke-width="9" stroke-linecap="round" /><text x="340" y="314" font-family="'DejaVu Sans Mono','Liberation Mono',monospace" font-size="38" fill="#ECE4D2">0</text><text x="340" y="614" font-family="'DejaVu Sans Mono','Liberation Mono',monospace" font-size="38" fill="#ECE4D2">1</text><text x="340" y="914" font-family="'DejaVu Sans Mono','Liberation Mono',monospace" font-size="38" fill="#ECE4D2">2</text><text x="340" y="1214" font-family="'DejaVu Sans Mono','Liberation Mono',monospace" font-size="38" fill="#ECE4D2">3</text><text x="340" y="1514" font-family="'DejaVu Sans Mono','Liberation Mono',monospace" font-size="38" fill="#ECE4D2">4</text><text x="340" y="1814" font-family="'DejaVu Sans Mono','Liberation Mono',monospace" font-size="38" fill="#ECE4D2">5</text><text x="340" y="2114" font-family="'DejaVu Sans Mono','Liberation Mono',monospace" font-size="38" fill="#ECE4D2">6</text><text x="340" y="2414" font-family="'DejaVu Sans Mono','Liberation Mono',monospace" font-size="38" fill="#ECE4D2">7</text><text x="340" y="2714" font-family="'DejaVu Sans Mono','Liberation Mono',monospace" font-size="38" fill="#ECE4D2">8</text><text x="340" y="3014" font-family="'DejaVu Sans Mono','Liberation Mono',monospace" font-size="38" fill="#ECE4D2">9</text><text x="340" y="3314" font-family="'DejaVu Sans Mono','Liberation Mono',monospace" font-size="38" fill="#ECE4D2">10</text><text x="340" y="3614" font-family="'DejaVu Sans Mono','Liberation Mono',monospace" font-size="38" fill="#ECE4D2">11</text><text x="340" y="3914" font-family="'DejaVu Sans Mono','Liberation Mono',monospace" font-size="38" fill="#ECE4D2">12</text><text x="340" y="4214" font-family="'DejaVu Sans Mono','Liberation Mono',monospace" font-size="38" fill="#ECE4D2">13</text><text x="340" y="4514" font-family="'DejaVu Sans Mono','Liberation Mono',monospace" font-size="38" fill="#ECE4D2">14</text><path d="M250 300h70M250 375h28M250 450h45M250 525h28M250 600h70M250 675h28M250 750h45M250 825h28M250 900h70M250 975h28M250 1050h45M250 1125h28M250 1200h70M250 1275h28M250 1350h45M250 1425h28M250 1500h70M250 1575h28M250 1650h45M250 1725h28M250 1800h70M250 1875h28M250 1950h45M250 2025h28M250 2100h70M250 2175h28M250 2250h45M250 2325h28M250 2400h70M250 2475h28M250 2550h45M250 2625h28M250 2700h70M250 2775h28M250 2850h45M250 2925h28M250 3000h70M250 3075h28M250 3150h45M250 3225h28M250 3300h70M250 3375h28M250 3450h45M250 3525h28M250 3600h70M250 3675h28M250 3750h45M250 3825h28M250 3900h70M250 3975h28M250 4050h45M250 4125h28M250 4200h70M250 4275h28M250 4350h45M250 4425h28M250 4500h70" fill="none" stroke="#ECE4D2" stroke-width="8" stroke-linecap="round" /></g>
<g id="LAYER-QUESTION-MARK" mask="url(#m3XLf-joints)"><path d="M834.1 1708.8 A1000 1000 0 1 1 2666 1950 C2456 2313.7 1800 2380 1800 2750 L1800 3140" fill="none" stroke="#ECE4D2" stroke-width="440" stroke-linecap="butt" stroke-linejoin="round"/></g>
<g id="LAYER-WORLD-WINDOW"><clipPath id="m3XLf-clip"><circle cx="0" cy="0" r="405"/></clipPath><g transform="translate(1800 3900)"><g clip-path="url(#m3XLf-clip)"><path d="M-420 -250 Q0 -470 420 -250" fill="none" stroke="#ECE4D2" stroke-width="12" stroke-linecap="round" stroke-linejoin="round" /><path d="M-420 -215 Q0 -430 420 -215" fill="none" stroke="#ECE4D2" stroke-width="7" stroke-linecap="round" stroke-linejoin="round" stroke-dasharray="26 22"/><path d="M-300 -205V-330H300V-205Z" fill="none" stroke="#ECE4D2" stroke-width="16" stroke-linecap="round" stroke-linejoin="round" /><path d="M-180 -330V-205" fill="none" stroke="#ECE4D2" stroke-width="12" stroke-linecap="round" stroke-linejoin="round" /><path d="M-60 -330V-205" fill="none" stroke="#ECE4D2" stroke-width="12" stroke-linecap="round" stroke-linejoin="round" /><path d="M60 -330V-205" fill="none" stroke="#ECE4D2" stroke-width="12" stroke-linecap="round" stroke-linejoin="round" /><path d="M180 -330V-205" fill="none" stroke="#ECE4D2" stroke-width="12" stroke-linecap="round" stroke-linejoin="round" /><path d="M-300 -267.5H300" fill="none" stroke="#ECE4D2" stroke-width="7" stroke-linecap="round" stroke-linejoin="round" /><clipPath id="m3XLf-pane"><rect x="68" y="-322" width="104" height="109"/></clipPath><path d="M-140 -205L-15 -330M-118 -205L7 -330M-96 -205L29 -330M-74 -205L51 -330M-52 -205L73 -330M-30 -205L95 -330M-8 -205L117 -330M14 -205L139 -330M36 -205L161 -330M58 -205L183 -330M80 -205L205 -330M102 -205L227 -330M124 -205L249 -330M146 -205L271 -330M168 -205L293 -330M190 -205L315 -330M212 -205L337 -330M234 -205L359 -330M256 -205L381 -330" stroke="#ECE4D2" stroke-width="7" clip-path="url(#m3XLf-pane)"/><path d="M-420 -150H420" fill="none" stroke="#ECE4D2" stroke-width="7" stroke-linecap="round" stroke-linejoin="round" /><path d="M-420 -75H420" fill="none" stroke="#ECE4D2" stroke-width="7" stroke-linecap="round" stroke-linejoin="round" /><path d="M-330 -150V-75" fill="none" stroke="#ECE4D2" stroke-width="7" stroke-linecap="round" stroke-linejoin="round" /><path d="M-120 -150V-75" fill="none" stroke="#ECE4D2" stroke-width="7" stroke-linecap="round" stroke-linejoin="round" /><path d="M90 -150V-75" fill="none" stroke="#ECE4D2" stroke-width="7" stroke-linecap="round" stroke-linejoin="round" /><path d="M300 -150V-75" fill="none" stroke="#ECE4D2" stroke-width="7" stroke-linecap="round" stroke-linejoin="round" /><path d="M-230 -75V0" fill="none" stroke="#ECE4D2" stroke-width="7" stroke-linecap="round" stroke-linejoin="round" /><path d="M200 -75V0" fill="none" stroke="#ECE4D2" stroke-width="7" stroke-linecap="round" stroke-linejoin="round" /><path d="M-250 300V40 Q-50 -70 150 40V300" fill="none" stroke="#ECE4D2" stroke-width="18" stroke-linecap="round" stroke-linejoin="round" /><path d="M-280 300V30 Q-50 -105 180 30V300" fill="none" stroke="#ECE4D2" stroke-width="9" stroke-linecap="round" stroke-linejoin="round" /><path d="M-265 35l0 -22" fill="none" stroke="#ECE4D2" stroke-width="8" stroke-linecap="round" stroke-linejoin="round" /><path d="M-211.2 8.1l0 -22" fill="none" stroke="#ECE4D2" stroke-width="8" stroke-linecap="round" stroke-linejoin="round" /><path d="M-157.5 -11.1l0 -22" fill="none" stroke="#ECE4D2" stroke-width="8" stroke-linecap="round" stroke-linejoin="round" /><path d="M-103.7 -22.7l0 -22" fill="none" stroke="#ECE4D2" stroke-width="8" stroke-linecap="round" stroke-linejoin="round" /><path d="M-50 -26.5l0 -22" fill="none" stroke="#ECE4D2" stroke-width="8" stroke-linecap="round" stroke-linejoin="round" /><path d="M3.8 -22.7l0 -22" fill="none" stroke="#ECE4D2" stroke-width="8" stroke-linecap="round" stroke-linejoin="round" /><path d="M57.5 -11.1l0 -22" fill="none" stroke="#ECE4D2" stroke-width="8" stroke-linecap="round" stroke-linejoin="round" /><path d="M111.3 8.1l0 -22" fill="none" stroke="#ECE4D2" stroke-width="8" stroke-linecap="round" stroke-linejoin="round" /><path d="M165 35l0 -22" fill="none" stroke="#ECE4D2" stroke-width="8" stroke-linecap="round" stroke-linejoin="round" /><path d="M-235 285 q18 -30 37 0 q18 -30 37 0 q18 -30 37 0 q18 -30 37 0 q18 -30 37 0 q18 -30 37 0 q18 -30 37 0 q18 -30 37 0 q18 -30 37 0 q18 -30 37 0" fill="none" stroke="#ECE4D2" stroke-width="10" stroke-linecap="round" stroke-linejoin="round" /><path d="M-225 290V70" fill="none" stroke="#ECE4D2" stroke-width="14" stroke-linecap="round" stroke-linejoin="round" /><path d="M-225 85L35 125" fill="none" stroke="#ECE4D2" stroke-width="14" stroke-linecap="round" stroke-linejoin="round" /><path d="M-225 170L-40 118" fill="none" stroke="#ECE4D2" stroke-width="8" stroke-linecap="round" stroke-linejoin="round" /><path d="M30 125V165" fill="none" stroke="#ECE4D2" stroke-width="8" stroke-linecap="round" stroke-linejoin="round" /><path d="M-30 170H90 Q95 250 30 262 Q-35 250 -30 170Z" fill="none" stroke="#ECE4D2" stroke-width="14" stroke-linecap="round" stroke-linejoin="round" /><path d="M-38 170H98" fill="none" stroke="#ECE4D2" stroke-width="10" stroke-linecap="round" stroke-linejoin="round" /><path d="M20 150 q-18 -30 0 -60 q18 -30 0 -60" fill="none" stroke="#ECE4D2" stroke-width="7" stroke-linecap="round" stroke-linejoin="round" stroke-dasharray="18 16"/><path d="M-120 250 C-140 120 -60 60 -80 -20 C-95 -95 60 -120 260 -130" fill="none" stroke="#ECE4D2" stroke-width="9" stroke-linecap="round" stroke-linejoin="round" /><path d="M-80 250 C-100 140 -20 80 -35 5 C-45 -60 90 -85 300 -95" fill="none" stroke="#ECE4D2" stroke-width="9" stroke-linecap="round" stroke-linejoin="round" stroke-dasharray="30 18"/><path d="M205 300V150 Q290 95 375 150V300" fill="none" stroke="#ECE4D2" stroke-width="14" stroke-linecap="round" stroke-linejoin="round" /><path d="M222 255H358" fill="none" stroke="#ECE4D2" stroke-width="7" stroke-linecap="round" stroke-linejoin="round" /><path d="M222 275H358" fill="none" stroke="#ECE4D2" stroke-width="7" stroke-linecap="round" stroke-linejoin="round" /><path d="M235 300l12 -60h60l12 60" fill="none" stroke="#ECE4D2" stroke-width="10" stroke-linecap="round" stroke-linejoin="round" /><path d="M245 240h72" fill="none" stroke="#ECE4D2" stroke-width="8" stroke-linecap="round" stroke-linejoin="round" /><path d="M-420 300H420" fill="none" stroke="#ECE4D2" stroke-width="14" stroke-linecap="round" stroke-linejoin="round" /><path d="M-300 300L-420 420" fill="none" stroke="#ECE4D2" stroke-width="7" stroke-linecap="round" stroke-linejoin="round" /><path d="M-100 300L-170 420" fill="none" stroke="#ECE4D2" stroke-width="7" stroke-linecap="round" stroke-linejoin="round" /><path d="M100 300L90 420" fill="none" stroke="#ECE4D2" stroke-width="7" stroke-linecap="round" stroke-linejoin="round" /><path d="M300 300L370 420" fill="none" stroke="#ECE4D2" stroke-width="7" stroke-linecap="round" stroke-linejoin="round" /><path d="M-420 360H420" fill="none" stroke="#ECE4D2" stroke-width="7" stroke-linecap="round" stroke-linejoin="round" /><path d="M-60 300 Q10 345 40 420" fill="none" stroke="#ECE4D2" stroke-width="8" stroke-linecap="round" stroke-linejoin="round" stroke-dasharray="20 16"/></g><circle r="440" fill="none" stroke="#ECE4D2" stroke-width="64"/><circle r="505" fill="none" stroke="#ECE4D2" stroke-width="9"/><path d="M505 0L470 0M503.1 44L484.2 42.4M497.3 87.7L478.6 84.4M487.8 130.7L469.4 125.8M474.5 172.7L456.7 166.2M457.7 213.4L440.5 205.4M437.3 252.5L407 235M413.7 289.7L398.1 278.8M386.9 324.6L372.3 312.4M357.1 357.1L343.7 343.7M324.6 386.9L312.4 372.3M289.7 413.7L278.8 398.1M252.5 437.3L235 407M213.4 457.7L205.4 440.5M172.7 474.5L166.2 456.7M130.7 487.8L125.8 469.4M87.7 497.3L84.4 478.6M44 503.1L42.4 484.2M0 505L0 470M-44 503.1L-42.4 484.2M-87.7 497.3L-84.4 478.6M-130.7 487.8L-125.8 469.4M-172.7 474.5L-166.2 456.7M-213.4 457.7L-205.4 440.5M-252.5 437.3L-235 407M-289.7 413.7L-278.8 398.1M-324.6 386.9L-312.4 372.3M-357.1 357.1L-343.7 343.7M-386.9 324.6L-372.3 312.4M-413.7 289.7L-398.1 278.8M-437.3 252.5L-407 235M-457.7 213.4L-440.5 205.4M-474.5 172.7L-456.7 166.2M-487.8 130.7L-469.4 125.8M-497.3 87.7L-478.6 84.4M-503.1 44L-484.2 42.4M-505 0L-470 0M-503.1 -44L-484.2 -42.4M-497.3 -87.7L-478.6 -84.4M-487.8 -130.7L-469.4 -125.8M-474.5 -172.7L-456.7 -166.2M-457.7 -213.4L-440.5 -205.4M-437.3 -252.5L-407 -235M-413.7 -289.7L-398.1 -278.8M-386.9 -324.6L-372.3 -312.4M-357.1 -357.1L-343.7 -343.7M-324.6 -386.9L-312.4 -372.3M-289.7 -413.7L-278.8 -398.1M-252.5 -437.3L-235 -407M-213.4 -457.7L-205.4 -440.5M-172.7 -474.5L-166.2 -456.7M-130.7 -487.8L-125.8 -469.4M-87.7 -497.3L-84.4 -478.6M-44 -503.1L-42.4 -484.2M0 -505L0 -470M44 -503.1L42.4 -484.2M87.7 -497.3L84.4 -478.6M130.7 -487.8L125.8 -469.4M172.7 -474.5L166.2 -456.7M213.4 -457.7L205.4 -440.5M252.5 -437.3L235 -407M289.7 -413.7L278.8 -398.1M324.6 -386.9L312.4 -372.3M357.1 -357.1L343.7 -343.7M386.9 -324.6L372.3 -312.4M413.7 -289.7L398.1 -278.8M437.3 -252.5L407 -235M457.7 -213.4L440.5 -205.4M474.5 -172.7L456.7 -166.2M487.8 -130.7L469.4 -125.8M497.3 -87.7L478.6 -84.4M503.1 -44L484.2 -42.4" stroke="#ECE4D2" stroke-width="8"/><path id="m3XLf-ring" d="M -560 0 A 560 560 0 1 1 560 0 A 560 560 0 1 1 -560 0" fill="none"/><text font-family="'DejaVu Sans Mono','Liberation Mono',monospace" font-size="44" letter-spacing="6" fill="#ECE4D2"><textPath href="#m3XLf-ring" startOffset="2%">WINDOW EA-RK-WIN-001 · ROYAL KITCHEN · UPPER COURT · EDEREAIRAH · ONE PANE OLDER THAN ITS NEIGHBOURS ·</textPath></text></g></g>
<g id="LAYER-RELATIONS"><text x="1800" y="4620" text-anchor="middle" font-family="'DejaVu Sans Mono','Liberation Mono',monospace" font-size="50" letter-spacing="7" fill="#ECE4D2">PUBLISHED BY ErsatzReality   ·   COMMISSIONED BY VYC2ST</text></g>
<g id="GUIDE-NONPRINT-THYLORA-MARK-SLOT" >
  <rect x="2560" y="4300" width="820" height="150" fill="none" stroke="#E0403A" stroke-width="10" stroke-dasharray="36 22"/>
  <text x="2970" y="4363" text-anchor="middle" font-family="'DejaVu Sans Mono','Liberation Mono',monospace" font-size="40" fill="#E0403A">THYLORA MARK — SLOT EMPTY</text>
  <text x="2970" y="4421" text-anchor="middle" font-family="'DejaVu Sans Mono','Liberation Mono',monospace" font-size="32" fill="#E0403A">BLOCKED · NOT_APPROVED · NO FILE</text>
</g></svg>
<rect x="-216" y="126" width="432" height="576" fill="none" stroke="#E0403A" stroke-width="2" stroke-dasharray="8 6"/>
<path d="M-504 1245.6H504M-504 1233.6v24M504 1233.6v24" stroke="#1d1b19" stroke-width="3"/>
<text x="0" y="1285.6" text-anchor="middle" font-family="'DejaVu Sans Mono','Liberation Mono',monospace" font-size="26" fill="#1d1b19">FRONT · chest 28 in · print area 12 in = 43% of chest</text>
<path d="M547.2 0V1188M535.2 0h24M535.2 1188h24" stroke="#1d1b19" stroke-width="3"/>
<text x="563.2" y="594" font-family="'DejaVu Sans Mono','Liberation Mono',monospace" font-size="24" fill="#1d1b19" transform="rotate(90 563.2 594)">length 33 in (HPS)</text>
<path d="M-237.6 153.6V650.4M-247.6 153.6h20M-247.6 650.4h20" stroke="#E0403A" stroke-width="3"/>
<text x="-251.6" y="402" text-anchor="middle" font-family="'DejaVu Sans Mono','Liberation Mono',monospace" font-size="24" fill="#E0403A" transform="rotate(-90 -251.6 402)">? 13.8 in tall (42% of length)</text>
</g>
<g transform="translate(2808.4 230)">
<path d="M-140.4 0 L-536.4 61.2 L-802.8 259.2 L-712.8 403.2 L-504 367.2 L-504 1188 Q0 1200.6 504 1188 L504 367.2 L712.8 403.2 L802.8 259.2 L536.4 61.2 L140.4 0 Q0 57.6 -140.4 0 Z" fill="#151515" stroke="#000" stroke-width="3"/>
<path d="M-140.4 0 Q0 57.6 140.4 0 M-151.2 19.8 Q0 97.2 151.2 19.8" fill="none" stroke="#2b2b2b" stroke-width="5"/>
<svg x="-216" y="64.8" width="432" height="576" viewBox="0 0 3600 4800" overflow="visible"><text x="1800" y="640" text-anchor="middle" font-family="'Liberation Serif','DejaVu Serif',serif" font-weight="bold" font-size="190" letter-spacing="6" fill="#ECE4D2">WHOSE KNIFE IS THAT,</text><text x="1800" y="870" text-anchor="middle" font-family="'Liberation Serif','DejaVu Serif',serif" font-weight="bold" font-size="190" letter-spacing="6" fill="#ECE4D2">AND WHERE DOES IT SLEEP?</text><g transform="translate(1800 1230) scale(0.42)"><clipPath id="m3XLb-sclip"><circle r="405"/></clipPath><g clip-path="url(#m3XLb-sclip)"><path d="M-420 -250 Q0 -470 420 -250" fill="none" stroke="#ECE4D2" stroke-width="12" stroke-linecap="round" stroke-linejoin="round" /><path d="M-420 -215 Q0 -430 420 -215" fill="none" stroke="#ECE4D2" stroke-width="7" stroke-linecap="round" stroke-linejoin="round" stroke-dasharray="26 22"/><path d="M-300 -205V-330H300V-205Z" fill="none" stroke="#ECE4D2" stroke-width="16" stroke-linecap="round" stroke-linejoin="round" /><path d="M-180 -330V-205" fill="none" stroke="#ECE4D2" stroke-width="12" stroke-linecap="round" stroke-linejoin="round" /><path d="M-60 -330V-205" fill="none" stroke="#ECE4D2" stroke-width="12" stroke-linecap="round" stroke-linejoin="round" /><path d="M60 -330V-205" fill="none" stroke="#ECE4D2" stroke-width="12" stroke-linecap="round" stroke-linejoin="round" /><path d="M180 -330V-205" fill="none" stroke="#ECE4D2" stroke-width="12" stroke-linecap="round" stroke-linejoin="round" /><path d="M-300 -267.5H300" fill="none" stroke="#ECE4D2" stroke-width="7" stroke-linecap="round" stroke-linejoin="round" /><clipPath id="m3XLbs-pane"><rect x="68" y="-322" width="104" height="109"/></clipPath><path d="M-140 -205L-15 -330M-118 -205L7 -330M-96 -205L29 -330M-74 -205L51 -330M-52 -205L73 -330M-30 -205L95 -330M-8 -205L117 -330M14 -205L139 -330M36 -205L161 -330M58 -205L183 -330M80 -205L205 -330M102 -205L227 -330M124 -205L249 -330M146 -205L271 -330M168 -205L293 -330M190 -205L315 -330M212 -205L337 -330M234 -205L359 -330M256 -205L381 -330" stroke="#ECE4D2" stroke-width="7" clip-path="url(#m3XLbs-pane)"/><path d="M-420 -150H420" fill="none" stroke="#ECE4D2" stroke-width="7" stroke-linecap="round" stroke-linejoin="round" /><path d="M-420 -75H420" fill="none" stroke="#ECE4D2" stroke-width="7" stroke-linecap="round" stroke-linejoin="round" /><path d="M-330 -150V-75" fill="none" stroke="#ECE4D2" stroke-width="7" stroke-linecap="round" stroke-linejoin="round" /><path d="M-120 -150V-75" fill="none" stroke="#ECE4D2" stroke-width="7" stroke-linecap="round" stroke-linejoin="round" /><path d="M90 -150V-75" fill="none" stroke="#ECE4D2" stroke-width="7" stroke-linecap="round" stroke-linejoin="round" /><path d="M300 -150V-75" fill="none" stroke="#ECE4D2" stroke-width="7" stroke-linecap="round" stroke-linejoin="round" /><path d="M-230 -75V0" fill="none" stroke="#ECE4D2" stroke-width="7" stroke-linecap="round" stroke-linejoin="round" /><path d="M200 -75V0" fill="none" stroke="#ECE4D2" stroke-width="7" stroke-linecap="round" stroke-linejoin="round" /><path d="M-250 300V40 Q-50 -70 150 40V300" fill="none" stroke="#ECE4D2" stroke-width="18" stroke-linecap="round" stroke-linejoin="round" /><path d="M-280 300V30 Q-50 -105 180 30V300" fill="none" stroke="#ECE4D2" stroke-width="9" stroke-linecap="round" stroke-linejoin="round" /><path d="M-265 35l0 -22" fill="none" stroke="#ECE4D2" stroke-width="8" stroke-linecap="round" stroke-linejoin="round" /><path d="M-211.2 8.1l0 -22" fill="none" stroke="#ECE4D2" stroke-width="8" stroke-linecap="round" stroke-linejoin="round" /><path d="M-157.5 -11.1l0 -22" fill="none" stroke="#ECE4D2" stroke-width="8" stroke-linecap="round" stroke-linejoin="round" /><path d="M-103.7 -22.7l0 -22" fill="none" stroke="#ECE4D2" stroke-width="8" stroke-linecap="round" stroke-linejoin="round" /><path d="M-50 -26.5l0 -22" fill="none" stroke="#ECE4D2" stroke-width="8" stroke-linecap="round" stroke-linejoin="round" /><path d="M3.8 -22.7l0 -22" fill="none" stroke="#ECE4D2" stroke-width="8" stroke-linecap="round" stroke-linejoin="round" /><path d="M57.5 -11.1l0 -22" fill="none" stroke="#ECE4D2" stroke-width="8" stroke-linecap="round" stroke-linejoin="round" /><path d="M111.3 8.1l0 -22" fill="none" stroke="#ECE4D2" stroke-width="8" stroke-linecap="round" stroke-linejoin="round" /><path d="M165 35l0 -22" fill="none" stroke="#ECE4D2" stroke-width="8" stroke-linecap="round" stroke-linejoin="round" /><path d="M-235 285 q18 -30 37 0 q18 -30 37 0 q18 -30 37 0 q18 -30 37 0 q18 -30 37 0 q18 -30 37 0 q18 -30 37 0 q18 -30 37 0 q18 -30 37 0 q18 -30 37 0" fill="none" stroke="#ECE4D2" stroke-width="10" stroke-linecap="round" stroke-linejoin="round" /><path d="M-225 290V70" fill="none" stroke="#ECE4D2" stroke-width="14" stroke-linecap="round" stroke-linejoin="round" /><path d="M-225 85L35 125" fill="none" stroke="#ECE4D2" stroke-width="14" stroke-linecap="round" stroke-linejoin="round" /><path d="M-225 170L-40 118" fill="none" stroke="#ECE4D2" stroke-width="8" stroke-linecap="round" stroke-linejoin="round" /><path d="M30 125V165" fill="none" stroke="#ECE4D2" stroke-width="8" stroke-linecap="round" stroke-linejoin="round" /><path d="M-30 170H90 Q95 250 30 262 Q-35 250 -30 170Z" fill="none" stroke="#ECE4D2" stroke-width="14" stroke-linecap="round" stroke-linejoin="round" /><path d="M-38 170H98" fill="none" stroke="#ECE4D2" stroke-width="10" stroke-linecap="round" stroke-linejoin="round" /><path d="M20 150 q-18 -30 0 -60 q18 -30 0 -60" fill="none" stroke="#ECE4D2" stroke-width="7" stroke-linecap="round" stroke-linejoin="round" stroke-dasharray="18 16"/><path d="M-120 250 C-140 120 -60 60 -80 -20 C-95 -95 60 -120 260 -130" fill="none" stroke="#ECE4D2" stroke-width="9" stroke-linecap="round" stroke-linejoin="round" /><path d="M-80 250 C-100 140 -20 80 -35 5 C-45 -60 90 -85 300 -95" fill="none" stroke="#ECE4D2" stroke-width="9" stroke-linecap="round" stroke-linejoin="round" stroke-dasharray="30 18"/><path d="M205 300V150 Q290 95 375 150V300" fill="none" stroke="#ECE4D2" stroke-width="14" stroke-linecap="round" stroke-linejoin="round" /><path d="M222 255H358" fill="none" stroke="#ECE4D2" stroke-width="7" stroke-linecap="round" stroke-linejoin="round" /><path d="M222 275H358" fill="none" stroke="#ECE4D2" stroke-width="7" stroke-linecap="round" stroke-linejoin="round" /><path d="M235 300l12 -60h60l12 60" fill="none" stroke="#ECE4D2" stroke-width="10" stroke-linecap="round" stroke-linejoin="round" /><path d="M245 240h72" fill="none" stroke="#ECE4D2" stroke-width="8" stroke-linecap="round" stroke-linejoin="round" /><path d="M-420 300H420" fill="none" stroke="#ECE4D2" stroke-width="14" stroke-linecap="round" stroke-linejoin="round" /><path d="M-300 300L-420 420" fill="none" stroke="#ECE4D2" stroke-width="7" stroke-linecap="round" stroke-linejoin="round" /><path d="M-100 300L-170 420" fill="none" stroke="#ECE4D2" stroke-width="7" stroke-linecap="round" stroke-linejoin="round" /><path d="M100 300L90 420" fill="none" stroke="#ECE4D2" stroke-width="7" stroke-linecap="round" stroke-linejoin="round" /><path d="M300 300L370 420" fill="none" stroke="#ECE4D2" stroke-width="7" stroke-linecap="round" stroke-linejoin="round" /><path d="M-420 360H420" fill="none" stroke="#ECE4D2" stroke-width="7" stroke-linecap="round" stroke-linejoin="round" /><path d="M-60 300 Q10 345 40 420" fill="none" stroke="#ECE4D2" stroke-width="8" stroke-linecap="round" stroke-linejoin="round" stroke-dasharray="20 16"/></g><circle r="440" fill="none" stroke="#ECE4D2" stroke-width="64"/></g><path d="M600 1500H1480M2120 1500H3000" stroke="#ECE4D2" stroke-width="9"/><text x="1800" y="1640" text-anchor="middle" font-family="'DejaVu Sans Mono','Liberation Mono',monospace" font-size="52" letter-spacing="5" fill="#ECE4D2">ERM-SHIRT-LS-QMARKWINDOW-R001 · SAMPLE</text><text x="1800" y="1730" text-anchor="middle" font-family="'DejaVu Sans Mono','Liberation Mono',monospace" font-size="52" letter-spacing="5" fill="#ECE4D2">WINDOW EA-RK-WIN-001 · ROYAL KITCHEN · UPPER COURT · EDEREAIRAH</text><text x="1800" y="1820" text-anchor="middle" font-family="'DejaVu Sans Mono','Liberation Mono',monospace" font-size="52" letter-spacing="5" fill="#ECE4D2">THE KNIFE: EA-RK-KN-0114 · LOCKED_TO ITS USER · RETURNS TO BOX EA-RK-BX-0114</text><text x="1800" y="1980" text-anchor="middle" font-family="'DejaVu Sans Mono','Liberation Mono',monospace" font-size="50" letter-spacing="7" fill="#ECE4D2">PUBLISHED BY ErsatzReality   ·   COMMISSIONED BY VYC2ST</text><g id="GUIDE-NONPRINT-THYLORA-MARK-SLOT" >
  <rect x="1390" y="2060" width="820" height="150" fill="none" stroke="#E0403A" stroke-width="10" stroke-dasharray="36 22"/>
  <text x="1800" y="2123" text-anchor="middle" font-family="'DejaVu Sans Mono','Liberation Mono',monospace" font-size="40" fill="#E0403A">THYLORA MARK — SLOT EMPTY</text>
  <text x="1800" y="2181" text-anchor="middle" font-family="'DejaVu Sans Mono','Liberation Mono',monospace" font-size="32" fill="#E0403A">BLOCKED · NOT_APPROVED · NO FILE</text>
</g></svg>
<rect x="-216" y="64.8" width="432" height="576" fill="none" stroke="#E0403A" stroke-width="2" stroke-dasharray="8 6"/>
<path d="M-504 1245.6H504M-504 1233.6v24M504 1233.6v24" stroke="#1d1b19" stroke-width="3"/>
<text x="0" y="1285.6" text-anchor="middle" font-family="'DejaVu Sans Mono','Liberation Mono',monospace" font-size="26" fill="#1d1b19">BACK · chest 28 in · print area 12 in = 43% of chest</text>
<path d="M547.2 0V1188M535.2 0h24M535.2 1188h24" stroke="#1d1b19" stroke-width="3"/>
<text x="563.2" y="594" font-family="'DejaVu Sans Mono','Liberation Mono',monospace" font-size="24" fill="#1d1b19" transform="rotate(90 563.2 594)">length 33 in (HPS)</text>
</g>
</svg>
