<?xml version="1.0" encoding="UTF-8"?>
<svg xmlns="http://www.w3.org/2000/svg" width="3in" height="3in" viewBox="0 0 900 900" >
<title>THY-SHIRT-FIRST-001 inner-neck detail — 3x3 in @300dpi (optional)</title>
<metadata>THY-SHIRT-FIRST-001 · THY-WORK-QUESTIONMARK-SHIRT-594 · generated 2026-09-24 by Claude Code (THYLORA session) from constructed vector geometry only · single ink #ECE4D2 · approval_state AWAITING_CHAIRMAN_APPROVAL · order_placed false</metadata>
<g transform="translate(450 330) scale(0.5)"><clipPath id="n-nclip"><circle r="405"/></clipPath><g clip-path="url(#n-nclip)"><path d="M-420 -250 Q0 -470 420 -250" fill="none" stroke="#ECE4D2" stroke-width="12" stroke-linecap="round" stroke-linejoin="round" /><path d="M-420 -215 Q0 -430 420 -215" fill="none" stroke="#ECE4D2" stroke-width="7" stroke-linecap="round" stroke-linejoin="round" stroke-dasharray="26 22"/><path d="M-300 -205V-330H300V-205Z" fill="none" stroke="#ECE4D2" stroke-width="16" stroke-linecap="round" stroke-linejoin="round" /><path d="M-180 -330V-205" fill="none" stroke="#ECE4D2" stroke-width="12" stroke-linecap="round" stroke-linejoin="round" /><path d="M-60 -330V-205" fill="none" stroke="#ECE4D2" stroke-width="12" stroke-linecap="round" stroke-linejoin="round" /><path d="M60 -330V-205" fill="none" stroke="#ECE4D2" stroke-width="12" stroke-linecap="round" stroke-linejoin="round" /><path d="M180 -330V-205" fill="none" stroke="#ECE4D2" stroke-width="12" stroke-linecap="round" stroke-linejoin="round" /><path d="M-300 -267.5H300" fill="none" stroke="#ECE4D2" stroke-width="7" stroke-linecap="round" stroke-linejoin="round" /><clipPath id="nn-pane"><rect x="68" y="-322" width="104" height="109"/></clipPath><path d="M-140 -205L-15 -330M-118 -205L7 -330M-96 -205L29 -330M-74 -205L51 -330M-52 -205L73 -330M-30 -205L95 -330M-8 -205L117 -330M14 -205L139 -330M36 -205L161 -330M58 -205L183 -330M80 -205L205 -330M102 -205L227 -330M124 -205L249 -330M146 -205L271 -330M168 -205L293 -330M190 -205L315 -330M212 -205L337 -330M234 -205L359 -330M256 -205L381 -330" stroke="#ECE4D2" stroke-width="7" clip-path="url(#nn-pane)"/><path d="M-420 -150H420" fill="none" stroke="#ECE4D2" stroke-width="7" stroke-linecap="round" stroke-linejoin="round" /><path d="M-420 -75H420" fill="none" stroke="#ECE4D2" stroke-width="7" stroke-linecap="round" stroke-linejoin="round" /><path d="M-330 -150V-75" fill="none" stroke="#ECE4D2" stroke-width="7" stroke-linecap="round" stroke-linejoin="round" /><path d="M-120 -150V-75" fill="none" stroke="#ECE4D2" stroke-width="7" stroke-linecap="round" stroke-linejoin="round" /><path d="M90 -150V-75" fill="none" stroke="#ECE4D2" stroke-width="7" stroke-linecap="round" stroke-linejoin="round" /><path d="M300 -150V-75" fill="none" stroke="#ECE4D2" stroke-width="7" stroke-linecap="round" stroke-linejoin="round" /><path d="M-230 -75V0" fill="none" stroke="#ECE4D2" stroke-width="7" stroke-linecap="round" stroke-linejoin="round" /><path d="M200 -75V0" fill="none" stroke="#ECE4D2" stroke-width="7" stroke-linecap="round" stroke-linejoin="round" /><path d="M-250 300V40 Q-50 -70 150 40V300" fill="none" stroke="#ECE4D2" stroke-width="18" stroke-linecap="round" stroke-linejoin="round" /><path d="M-280 300V30 Q-50 -105 180 30V300" fill="none" stroke="#ECE4D2" stroke-width="9" stroke-linecap="round" stroke-linejoin="round" /><path d="M-265 35l0 -22" fill="none" stroke="#ECE4D2" stroke-width="8" stroke-linecap="round" stroke-linejoin="round" /><path d="M-211.2 8.1l0 -22" fill="none" stroke="#ECE4D2" stroke-width="8" stroke-linecap="round" stroke-linejoin="round" /><path d="M-157.5 -11.1l0 -22" fill="none" stroke="#ECE4D2" stroke-width="8" stroke-linecap="round" stroke-linejoin="round" /><path d="M-103.7 -22.7l0 -22" fill="none" stroke="#ECE4D2" stroke-width="8" stroke-linecap="round" stroke-linejoin="round" /><path d="M-50 -26.5l0 -22" fill="none" stroke="#ECE4D2" stroke-width="8" stroke-linecap="round" stroke-linejoin="round" /><path d="M3.8 -22.7l0 -22" fill="none" stroke="#ECE4D2" stroke-width="8" stroke-linecap="round" stroke-linejoin="round" /><path d="M57.5 -11.1l0 -22" fill="none" stroke="#ECE4D2" stroke-width="8" stroke-linecap="round" stroke-linejoin="round" /><path d="M111.3 8.1l0 -22" fill="none" stroke="#ECE4D2" stroke-width="8" stroke-linecap="round" stroke-linejoin="round" /><path d="M165 35l0 -22" fill="none" stroke="#ECE4D2" stroke-width="8" stroke-linecap="round" stroke-linejoin="round" /><path d="M-235 285 q18 -30 37 0 q18 -30 37 0 q18 -30 37 0 q18 -30 37 0 q18 -30 37 0 q18 -30 37 0 q18 -30 37 0 q18 -30 37 0 q18 -30 37 0 q18 -30 37 0" fill="none" stroke="#ECE4D2" stroke-width="10" stroke-linecap="round" stroke-linejoin="round" /><path d="M-225 290V70" fill="none" stroke="#ECE4D2" stroke-width="14" stroke-linecap="round" stroke-linejoin="round" /><path d="M-225 85L35 125" fill="none" stroke="#ECE4D2" stroke-width="14" stroke-linecap="round" stroke-linejoin="round" /><path d="M-225 170L-40 118" fill="none" stroke="#ECE4D2" stroke-width="8" stroke-linecap="round" stroke-linejoin="round" /><path d="M30 125V165" fill="none" stroke="#ECE4D2" stroke-width="8" stroke-linecap="round" stroke-linejoin="round" /><path d="M-30 170H90 Q95 250 30 262 Q-35 250 -30 170Z" fill="none" stroke="#ECE4D2" stroke-width="14" stroke-linecap="round" stroke-linejoin="round" /><path d="M-38 170H98" fill="none" stroke="#ECE4D2" stroke-width="10" stroke-linecap="round" stroke-linejoin="round" /><path d="M20 150 q-18 -30 0 -60 q18 -30 0 -60" fill="none" stroke="#ECE4D2" stroke-width="7" stroke-linecap="round" stroke-linejoin="round" stroke-dasharray="18 16"/><path d="M-120 250 C-140 120 -60 60 -80 -20 C-95 -95 60 -120 260 -130" fill="none" stroke="#ECE4D2" stroke-width="9" stroke-linecap="round" stroke-linejoin="round" /><path d="M-80 250 C-100 140 -20 80 -35 5 C-45 -60 90 -85 300 -95" fill="none" stroke="#ECE4D2" stroke-width="9" stroke-linecap="round" stroke-linejoin="round" stroke-dasharray="30 18"/><path d="M205 300V150 Q290 95 375 150V300" fill="none" stroke="#ECE4D2" stroke-width="14" stroke-linecap="round" stroke-linejoin="round" /><path d="M222 255H358" fill="none" stroke="#ECE4D2" stroke-width="7" stroke-linecap="round" stroke-linejoin="round" /><path d="M222 275H358" fill="none" stroke="#ECE4D2" stroke-width="7" stroke-linecap="round" stroke-linejoin="round" /><path d="M235 300l12 -60h60l12 60" fill="none" stroke="#ECE4D2" stroke-width="10" stroke-linecap="round" stroke-linejoin="round" /><path d="M245 240h72" fill="none" stroke="#ECE4D2" stroke-width="8" stroke-linecap="round" stroke-linejoin="round" /><path d="M-420 300H420" fill="none" stroke="#ECE4D2" stroke-width="14" stroke-linecap="round" stroke-linejoin="round" /><path d="M-300 300L-420 420" fill="none" stroke="#ECE4D2" stroke-width="7" stroke-linecap="round" stroke-linejoin="round" /><path d="M-100 300L-170 420" fill="none" stroke="#ECE4D2" stroke-width="7" stroke-linecap="round" stroke-linejoin="round" /><path d="M100 300L90 420" fill="none" stroke="#ECE4D2" stroke-width="7" stroke-linecap="round" stroke-linejoin="round" /><path d="M300 300L370 420" fill="none" stroke="#ECE4D2" stroke-width="7" stroke-linecap="round" stroke-linejoin="round" /><path d="M-420 360H420" fill="none" stroke="#ECE4D2" stroke-width="7" stroke-linecap="round" stroke-linejoin="round" /><path d="M-60 300 Q10 345 40 420" fill="none" stroke="#ECE4D2" stroke-width="8" stroke-linecap="round" stroke-linejoin="round" stroke-dasharray="20 16"/></g><circle r="440" fill="none" stroke="#ECE4D2" stroke-width="64"/></g>
<text x="450" y="660" text-anchor="middle" font-family="'DejaVu Sans Mono','Liberation Mono',monospace" font-size="40" fill="#ECE4D2">ERM-SHIRT-LS-QMARKWINDOW-R001</text>
<text x="450" y="730" text-anchor="middle" font-family="'DejaVu Sans Mono','Liberation Mono',monospace" font-size="40" letter-spacing="4" fill="#ECE4D2">VYC2ST · ErsatzReality</text>
<text x="450" y="800" text-anchor="middle" font-family="'DejaVu Sans Mono','Liberation Mono',monospace" font-size="30" fill="#ECE4D2">BELLA+CANVAS 3001 · DTG</text>
</svg>
